<?xml version="1.0" encoding="UTF-8"?>
<svg version="1.1" xmlns="http://www.w3.org/2000/svg" width="16" height="16">
<path d="M0 0 C5.28 0 10.56 0 16 0 C16 5.28 16 10.56 16 16 C10.72 16 5.44 16 0 16 C0 10.72 0 5.44 0 0 Z " fill="#5094E3" transform="translate(0,0)"/>
<path d="M0 0 C1.23556641 0.01740234 1.23556641 0.01740234 2.49609375 0.03515625 C3.32238281 0.04417969 4.14867187 0.05320312 5 0.0625 C5.63808594 0.07410156 6.27617187 0.08570313 6.93359375 0.09765625 C5.94359375 0.42765625 4.95359375 0.75765625 3.93359375 1.09765625 C3.93359375 2.74765625 3.93359375 4.39765625 3.93359375 6.09765625 C1.29359375 6.09765625 -1.34640625 6.09765625 -4.06640625 6.09765625 C-2.99738005 0.14165312 -2.99738005 0.14165312 0 0 Z " fill="#90BAED" transform="translate(4.06640625,9.90234375)"/>
</svg>
