<?xml version="1.0" encoding="UTF-8"?>
<svg version="1.1" xmlns="http://www.w3.org/2000/svg" width="16" height="16">
<path d="M0 0 C5.28 0 10.56 0 16 0 C16 5.28 16 10.56 16 16 C10.72 16 5.44 16 0 16 C0 10.72 0 5.44 0 0 Z " fill="#5697E4" transform="translate(0,0)"/>
<path d="M0 0 C5.28 0 10.56 0 16 0 C16.29296875 6.8359375 16.29296875 6.8359375 16 9 C15.01 9.66 14.02 10.32 13 11 C13 9.35 13 7.7 13 6 C12.34 6 11.68 6 11 6 C11 7.65 11 9.3 11 11 C10.5978125 10.0409375 10.5978125 10.0409375 10.1875 9.0625 C9.11332248 6.66868314 9.11332248 6.66868314 6 6 C6 5.34 6 4.68 6 4 C4.35 4 2.7 4 1 4 C1 6.31 1 8.62 1 11 C0.67 11 0.34 11 0 11 C0 7.37 0 3.74 0 0 Z " fill="#498FE2" transform="translate(0,0)"/>
<path d="M0 0 C1.65 0 3.3 0 5 0 C5 0.66 5 1.32 5 2 C6.32 2.33 7.64 2.66 9 3 C8.67 4.32 8.34 5.64 8 7 C7.38125 6.814375 6.7625 6.62875 6.125 6.4375 C3.95839822 5.76313824 3.95839822 5.76313824 2 7 C2 5.35 2 3.7 2 2 C1.34 2 0.68 2 0 2 C0 1.34 0 0.68 0 0 Z " fill="#8DB9EC" transform="translate(1,4)"/>
<path d="M0 0 C0.99 0.33 1.98 0.66 3 1 C2.67 2.32 2.34 3.64 2 5 C1.01 5 0.02 5 -1 5 C-0.67 3.35 -0.34 1.7 0 0 Z " fill="#A6C8F0" transform="translate(7,6)"/>
</svg>
